<?xml version="1.0" encoding="UTF-8"?>
<svg xmlns="http://www.w3.org/2000/svg" xmlns:xlink="http://www.w3.org/1999/xlink" fill-opacity="1" color-rendering="auto" color-interpolation="auto" stroke="black" text-rendering="auto" stroke-linecap="square" width="444" stroke-miterlimit="10" stroke-opacity="1" shape-rendering="auto" fill="black" stroke-dasharray="none" font-weight="normal" stroke-width="1" height="243" font-family="'Dialog'" font-style="normal" stroke-linejoin="miter" font-size="12" stroke-dashoffset="0" image-rendering="auto">
  <!--Generated by ySVG-->
  <defs id="genericDefs"/>
  <g>
    <defs id="defs1">
      <clipPath clipPathUnits="userSpaceOnUse" id="clipPath1">
        <path d="M0 0 L444 0 L444 243 L0 243 L0 0 Z"/>
      </clipPath>
      <clipPath clipPathUnits="userSpaceOnUse" id="clipPath2">
        <path d="M199 58 L643 58 L643 301 L199 301 L199 58 Z"/>
      </clipPath>
    </defs>
    <g fill="white" transform="translate(-199,-58)" stroke="white">
      <rect x="199" width="444" height="243" y="58" clip-path="url(#clipPath2)" stroke="none"/>
    </g>
    <g fill="rgb(153,204,0)" transform="matrix(1,0,0,1,-199,-58)" stroke="rgb(153,204,0)">
      <rect x="214" width="182" height="51" y="73" clip-path="url(#clipPath2)" stroke="none"/>
    </g>
    <g stroke-miterlimit="1.45" font-family="sans-serif" transform="matrix(1,0,0,1,-199,-58)" stroke-linecap="butt">
      <text x="287.6797" xml:space="preserve" y="102.6562" clip-path="url(#clipPath2)" stroke="none">query</text>
    </g>
    <g fill="rgb(218,255,0)" transform="matrix(1,0,0,1,-199,-58)" stroke="rgb(218,255,0)">
      <rect x="214" width="1" height="51" y="73" clip-path="url(#clipPath2)" stroke="none"/>
      <rect x="215" width="180" height="1" y="73" clip-path="url(#clipPath2)" stroke="none"/>
      <rect x="215" y="123" clip-path="url(#clipPath2)" fill="rgb(107,142,0)" width="181" height="1" stroke="none"/>
      <rect x="395" y="73" clip-path="url(#clipPath2)" fill="rgb(107,142,0)" width="1" height="50" stroke="none"/>
      <rect x="214" y="154" clip-path="url(#clipPath2)" fill="rgb(255,204,153)" width="182" height="51" stroke="none"/>
    </g>
    <g stroke-miterlimit="1.45" font-family="sans-serif" transform="matrix(1,0,0,1,-199,-58)" stroke-linecap="butt">
      <text x="290.6973" xml:space="preserve" y="183.6562" clip-path="url(#clipPath2)" stroke="none">base</text>
    </g>
    <g fill="rgb(255,255,218)" transform="matrix(1,0,0,1,-199,-58)" stroke="rgb(255,255,218)">
      <rect x="214" width="1" height="51" y="154" clip-path="url(#clipPath2)" stroke="none"/>
      <rect x="215" width="180" height="1" y="154" clip-path="url(#clipPath2)" stroke="none"/>
      <rect x="215" y="204" clip-path="url(#clipPath2)" fill="rgb(178,142,107)" width="181" height="1" stroke="none"/>
      <rect x="395" y="154" clip-path="url(#clipPath2)" fill="rgb(178,142,107)" width="1" height="50" stroke="none"/>
      <rect x="446" y="73" clip-path="url(#clipPath2)" fill="rgb(153,204,0)" width="182" height="51" stroke="none"/>
    </g>
    <g stroke-miterlimit="1.45" font-family="sans-serif" transform="matrix(1,0,0,1,-199,-58)" stroke-linecap="butt">
      <text x="522.3838" xml:space="preserve" y="102.6562" clip-path="url(#clipPath2)" stroke="none">login</text>
    </g>
    <g fill="rgb(218,255,0)" transform="matrix(1,0,0,1,-199,-58)" stroke="rgb(218,255,0)">
      <rect x="446" width="1" height="51" y="73" clip-path="url(#clipPath2)" stroke="none"/>
      <rect x="447" width="180" height="1" y="73" clip-path="url(#clipPath2)" stroke="none"/>
      <rect x="447" y="123" clip-path="url(#clipPath2)" fill="rgb(107,142,0)" width="181" height="1" stroke="none"/>
      <rect x="627" y="73" clip-path="url(#clipPath2)" fill="rgb(107,142,0)" width="1" height="50" stroke="none"/>
      <rect x="214" y="235" clip-path="url(#clipPath2)" fill="rgb(153,204,0)" width="182" height="51" stroke="none"/>
    </g>
    <g stroke-miterlimit="1.45" font-family="sans-serif" transform="matrix(1,0,0,1,-199,-58)" stroke-linecap="butt">
      <text x="295.5107" xml:space="preserve" y="264.6562" clip-path="url(#clipPath2)" stroke="none">util</text>
    </g>
    <g fill="rgb(218,255,0)" transform="matrix(1,0,0,1,-199,-58)" stroke="rgb(218,255,0)">
      <rect x="214" width="1" height="51" y="235" clip-path="url(#clipPath2)" stroke="none"/>
      <rect x="215" width="180" height="1" y="235" clip-path="url(#clipPath2)" stroke="none"/>
      <rect x="215" y="285" clip-path="url(#clipPath2)" fill="rgb(107,142,0)" width="181" height="1" stroke="none"/>
      <rect x="395" y="235" clip-path="url(#clipPath2)" fill="rgb(107,142,0)" width="1" height="50" stroke="none"/>
    </g>
    <g stroke-linecap="butt" transform="matrix(1,0,0,1,-199,-58)" stroke-miterlimit="1.45">
      <path fill="none" d="M305 124.0103 L305 146.004" clip-path="url(#clipPath2)"/>
      <path d="M305 154.004 L310 142.004 L305 145.004 L300 142.004 Z" clip-path="url(#clipPath2)" stroke="none"/>
      <path fill="none" d="M305 205.0103 L305 227.004" clip-path="url(#clipPath2)"/>
      <path d="M305 235.004 L310 223.004 L305 226.004 L300 223.004 Z" clip-path="url(#clipPath2)" stroke="none"/>
      <path fill="none" d="M537 124.0103 L537 260.5 L403.9932 260.5" clip-path="url(#clipPath2)"/>
      <path d="M395.9932 260.5 L407.9932 265.5 L404.9932 260.5 L407.9932 255.5 Z" clip-path="url(#clipPath2)" stroke="none"/>
    </g>
  </g>
</svg>
